<mxfile host="65bd71144e">
    <diagram name="Model Comparison - Round 4" id="model-comparison-round4">
        <mxGraphModel dx="1428" dy="711" grid="1" gridSize="10" guides="1" tooltips="1" connect="1" arrows="1" fold="1" page="1" pageScale="1" pageWidth="1400" pageHeight="1000" math="0" shadow="0">
            <root>
                <mxCell id="0"/>
                <mxCell id="1" parent="0"/>
                <object label="🧩 Model Comparison – Round 4" tooltip="Round 4 comparison of 4 different AI coding models tested with Continue extension in VS Code. This round introduces file editing tasks using the edit_existing_file tool, testing models&#39; ability to modify existing code rather than create new files. The comparison shows a significant drop in tool execution rates (25%) compared to previous rounds, revealing challenges with file editing operations. The evaluation focuses on tool execution, code quality, modern syntax usage, and overall performance across different model sizes and architectures." id="title">
                    <mxCell style="rounded=1;whiteSpace=wrap;html=1;fontSize=20;fontStyle=1;fillColor=#dae8fc;strokeColor=#6c8ebf;verticalAlign=top;spacingTop=10;spacingBottom=10;" parent="1" vertex="1">
                        <mxGeometry x="40" y="20" width="1320" height="60" as="geometry"/>
                    </mxCell>
                </object>
                <object label="📋 Test Prompt (File Editing)&lt;br&gt;&lt;br&gt;&amp;gt; Please modify the file `src/components/my-component.ts` using the `edit_existing_file` tool.&lt;br&gt;&amp;gt; Add a new reactive property called `greeting: string = &#39;Hello&#39;`, and update the `render()` method to use it like this:&lt;br&gt;&amp;gt; ```ts&lt;br&gt;&amp;gt; return html`&lt;h1&gt;${this.greeting}, ${this.name}&lt;/h1&gt;`;&lt;br&gt;&amp;gt; ```&lt;br&gt;&amp;gt; Return the correct tool call to make this change." tooltip="File editing prompt for Round 4 testing models&#39; ability to modify existing code using the edit_existing_file tool. This prompt tests each model&#39;s understanding of file modification tasks, reactive property addition, and render method updates. The task requires understanding existing code structure, making precise modifications, and using the correct tool calling format for file editing operations." id="test-prompt">
                    <mxCell style="rounded=1;whiteSpace=wrap;html=1;fontSize=14;fontStyle=1;fillColor=#e1d5e7;strokeColor=#9673a6;verticalAlign=top;spacingTop=10;spacingBottom=10;" parent="1" vertex="1">
                        <mxGeometry x="40" y="100" width="1320" height="270" as="geometry"/>
                    </mxCell>
                </object>
                <object label="⚙️ Test Environment &amp; Configuration" tooltip="Round 4 test environment with the same enhanced rules and configuration as previous rounds. This round maintains the improved tool usage policy and configuration, but introduces file editing tasks which prove more challenging for the models. The same configuration that worked well for file creation shows limitations when applied to file modification tasks." id="test-environment-title">
                    <mxCell style="rounded=1;whiteSpace=wrap;html=1;fontSize=14;fontStyle=1;fillColor=#fff2cc;strokeColor=#d6b656;verticalAlign=top;spacingTop=10;spacingBottom=10;" parent="1" vertex="1">
                        <mxGeometry x="40" y="380" width="1320" height="40" as="geometry"/>
                    </mxCell>
                </object>
                <object label="📋 Continue Agent Rules (Same as Previous Rounds)&lt;br&gt;&lt;br&gt;# Tool Usage Policy&lt;br&gt;You are a coding agent in VS Code with Continue tool access.&lt;br&gt;&lt;br&gt;- You must prefer tools over direct code output.&lt;br&gt;- When creating or editing files, use only the official Continue JSON schema:&lt;br&gt;  {&quot;tool&quot;:&quot;&lt;tool_name&gt;&quot;,&quot;args&quot;:{...}}&lt;br&gt;- Do not use &quot;name&quot;, &quot;arguments&quot;, or &quot;filepath&quot;.&lt;br&gt;- Always specify absolute or project-relative paths (e.g., src/components/...).&lt;br&gt;- When the task involves file creation or modification, always:&lt;br&gt;    1. call the tool&lt;br&gt;    2. wait for confirmation&lt;br&gt;    3. summarize the change (optional)" tooltip="Same Continue Agent rules as previous rounds with explicit tool usage policy and strict JSON schema requirements. These rules provide clear guidance on tool calling format, path specifications, and workflow. However, file editing tasks prove more challenging than file creation, revealing limitations in the current configuration for complex modification operations." id="continue-rules">
                    <mxCell style="rounded=1;whiteSpace=wrap;html=1;fontSize=11;fillColor=#fff2cc;strokeColor=#d6b656;verticalAlign=top;spacingTop=5;" parent="1" vertex="1">
                        <mxGeometry x="40" y="440" width="640" height="670" as="geometry"/>
                    </mxCell>
                </object>
                <object label="⚙️ Configuration (config.yaml)&lt;br&gt;&lt;br&gt;```yaml&lt;br&gt;name: Local Agent&lt;br&gt;version: 1.0.0&lt;br&gt;schema: v1&lt;br&gt;&lt;br&gt;systemPrompt: |&lt;br&gt;  You are a coding assistant working inside VS Code.&lt;br&gt;  Always prefer Continue tool calls.&lt;br&gt;  Follow this exact JSON schema when calling a tool:&lt;br&gt;  {&quot;tool&quot;:&quot;&lt;name&gt;&quot;,&quot;args&quot;:{...}}&lt;br&gt;&lt;br&gt;autoApplyEdits: true&lt;br&gt;autoExecuteToolCalls: true&lt;br&gt;&lt;br&gt;providers:&lt;br&gt;  ollama:&lt;br&gt;    apiBase: http://127.0.0.1:11434&lt;br&gt;&lt;br&gt;models:&lt;br&gt;  - name: StarCoder 2 7B (Ollama)&lt;br&gt;    provider: ollama&lt;br&gt;    model: starcoder2:7b-q4_K_M&lt;br&gt;    roles: [chat, edit, apply, autocomplete]&lt;br&gt;    toolCalling: true&lt;br&gt;    toolSchemaHint: &#39;{&quot;tool&quot;:&quot;&lt;tool_name&gt;&quot;,&quot;args&quot;:{&quot;path&quot;:&quot;string&quot;,&quot;content&quot;:&quot;string&quot;}}&#39;&lt;br&gt;&lt;br&gt;  - name: DeepSeek Coder&lt;br&gt;    provider: ollama&lt;br&gt;    model: deepseek-coder:6.7b-instruct-q4_K_M&lt;br&gt;    roles: [chat, edit, apply, autocomplete]&lt;br&gt;    toolCalling: true&lt;br&gt;    toolSchemaHint: &#39;{&quot;tool&quot;:&quot;&lt;tool_name&gt;&quot;,&quot;args&quot;:{&quot;path&quot;:&quot;string&quot;,&quot;content&quot;:&quot;string&quot;}}&#39;&lt;br&gt;&lt;br&gt;  - name: Qwen Coder&lt;br&gt;    provider: ollama&lt;br&gt;    model: qwen2.5-coder:7b-instruct-q4_K_M&lt;br&gt;    roles: [chat, edit, apply, autocomplete]&lt;br&gt;    toolCalling: true&lt;br&gt;    toolSchemaHint: &#39;{&quot;tool&quot;:&quot;&lt;tool_name&gt;&quot;,&quot;args&quot;:{&quot;path&quot;:&quot;string&quot;,&quot;content&quot;:&quot;string&quot;}}&#39;&lt;br&gt;&lt;br&gt;  - name: StarCoder2 15B Instruct&lt;br&gt;    provider: ollama&lt;br&gt;    model: starcoder2:15b-instruct&lt;br&gt;    roles: [chat, edit, apply, autocomplete]&lt;br&gt;    toolCalling: true&lt;br&gt;    toolSchemaHint: &#39;{&quot;tool&quot;:&quot;&lt;tool_name&gt;&quot;,&quot;args&quot;:{&quot;path&quot;:&quot;string&quot;,&quot;content&quot;:&quot;string&quot;}}&#39;&lt;br&gt;&lt;br&gt;  - name: Nomic Embed&lt;br&gt;    provider: ollama&lt;br&gt;    model: nomic-embed-text:latest&lt;br&gt;    roles: [embed]&lt;br&gt;```" tooltip="Same Continue configuration file as previous rounds with systemPrompt and toolSchemaHint. However, file editing tasks reveal that the current configuration may need enhancement for complex modification operations. The toolSchemaHint focuses on path/content but may need additional guidance for edit operations with specific change instructions." id="config-yaml">
                    <mxCell style="rounded=1;whiteSpace=wrap;html=1;fontSize=10;fillColor=#e1d5e7;strokeColor=#9673a6;verticalAlign=top;spacingTop=5;" parent="1" vertex="1">
                        <mxGeometry x="700" y="440" width="660" height="670" as="geometry"/>
                    </mxCell>
                </object>
                <object label="🥇 Model 1: StarCoder2 15B Instruct" tooltip="StarCoder2 (15b-instruct) - The only successful model in Round 4. Successfully executed the edit_existing_file tool and modified the TypeScript Lit component file. Added the greeting property and updated the render method as requested. However, reverted to legacy lit-element import instead of maintaining Lit 3 imports. Demonstrated the strongest tool-calling capabilities for file editing operations, though with some framework regression." id="model1-title">
                    <mxCell style="rounded=1;whiteSpace=wrap;html=1;fontSize=16;fontStyle=1;fillColor=#d5e8d4;strokeColor=#82b366;verticalAlign=top;spacingTop=10;" parent="1" vertex="1">
                        <mxGeometry x="40" y="1130" width="320" height="60" as="geometry"/>
                    </mxCell>
                </object>
                <object label="✅ Tool Execution: SUCCESS&lt;br&gt;✅ Code Quality: Good&lt;br&gt;⚠️ Modern Syntax: Legacy import regression&lt;br&gt;💬 User Experience: Good" tooltip="StarCoder2 15B successfully executed the edit_existing_file tool and modified the file as requested. The model added the greeting property and updated the render method correctly. However, it reverted to legacy lit-element import instead of maintaining Lit 3 imports, showing some framework regression. Despite this, it remains the only model capable of successful file editing operations in Round 4." id="model1-results">
                    <mxCell style="rounded=1;whiteSpace=wrap;html=1;fontSize=12;fillColor=#d5e8d4;strokeColor=#82b366;verticalAlign=top;spacingTop=5;" parent="1" vertex="1">
                        <mxGeometry x="40" y="1210" width="320" height="100" as="geometry"/>
                    </mxCell>
                </object>
                <object label="🥈 Model 2: DeepSeek Coder 6.7B Instruct" tooltip="DeepSeek Coder (6.7b-instruct-q4_K_M) - Understood the task conceptually but failed to execute. Provided explanation about using the edit_existing_file tool and added a disclaimer, but did not emit a JSON-only tool call. Reverted to chat mode instead of executing the tool. Shows understanding of the task but struggles with the transition from explanation to tool execution for file editing operations." id="model2-title">
                    <mxCell style="rounded=1;whiteSpace=wrap;html=1;fontSize=16;fontStyle=1;fillColor=#fff2cc;strokeColor=#d6b656;verticalAlign=top;spacingTop=10;" parent="1" vertex="1">
                        <mxGeometry x="380" y="1130" width="320" height="60" as="geometry"/>
                    </mxCell>
                </object>
                <object label="❌ Tool Execution: FAILED&lt;br&gt;✅ Code Quality: N/A&lt;br&gt;✅ Modern Syntax: N/A&lt;br&gt;💬 User Experience: Good" tooltip="DeepSeek Coder understood the task conceptually and provided explanation about using the edit_existing_file tool, but failed to emit a JSON-only tool call. The model reverted to chat mode instead of executing the tool, showing understanding of the task but inability to transition from explanation to tool execution. This represents a regression from previous rounds where it successfully executed file creation tools." id="model2-results">
                    <mxCell style="rounded=1;whiteSpace=wrap;html=1;fontSize=12;fillColor=#fff2cc;strokeColor=#d6b656;verticalAlign=top;spacingTop=5;" parent="1" vertex="1">
                        <mxGeometry x="380" y="1210" width="320" height="100" as="geometry"/>
                    </mxCell>
                </object>
                <object label="🥉 Model 3: Qwen2.5 Coder 7B Instruct" tooltip="Qwen2.5 Coder (7b-instruct-q4_K_M) - Excellent code understanding but persistent tool execution issues. Generated correct edit logic with proper greeting property addition and render method updates. However, continued to use incorrect JSON schema for tool calling (name/arguments/filepath/changes vs tool/args/path/content), preventing successful file editing. Shows great understanding of code modification but needs schema correction to function properly." id="model3-title">
                    <mxCell style="rounded=1;whiteSpace=wrap;html=1;fontSize=16;fontStyle=1;fillColor=#ffe6cc;strokeColor=#d79b00;verticalAlign=top;spacingTop=10;" parent="1" vertex="1">
                        <mxGeometry x="720" y="1130" width="320" height="60" as="geometry"/>
                    </mxCell>
                </object>
                <object label="❌ Tool Execution: FAILED&lt;br&gt;✅ Code Quality: Excellent&lt;br&gt;✅ Modern Syntax: Perfect&lt;br&gt;💬 User Experience: Good" tooltip="Qwen2.5 Coder generated excellent edit logic with correct greeting property addition and render method updates, demonstrating perfect understanding of the code modification task. However, failed to execute the tool due to incorrect JSON schema usage (name/arguments/filepath/changes vs tool/args/path/content). The model shows excellent code understanding but continues to struggle with Continue&#39;s specific tool calling format for file editing operations." id="model3-results">
                    <mxCell style="rounded=1;whiteSpace=wrap;html=1;fontSize=12;fillColor=#ffe6cc;strokeColor=#d79b00;verticalAlign=top;spacingTop=5;" parent="1" vertex="1">
                        <mxGeometry x="720" y="1210" width="320" height="100" as="geometry"/>
                    </mxCell>
                </object>
                <object label="❌ Model 4: StarCoder2 7B Base" tooltip="StarCoder2 (7b-q4_K_M) - Complete failure with no output. Produced nothing at all, likely failed to parse tool context or schema for file editing operations. This represents the worst performance in Round 4, showing poor prompt understanding and no tool calling capabilities. The base model (non-instruct) version continues to lack the instruction-following capabilities needed for Continue integration, especially for complex file editing tasks." id="model4-title">
                    <mxCell style="rounded=1;whiteSpace=wrap;html=1;fontSize=16;fontStyle=1;fillColor=#f8cecc;strokeColor=#b85450;verticalAlign=top;spacingTop=10;" parent="1" vertex="1">
                        <mxGeometry x="1060" y="1130" width="320" height="60" as="geometry"/>
                    </mxCell>
                </object>
                <object label="❌ Tool Execution: NONE&lt;br&gt;❌ Code Quality: N/A&lt;br&gt;❌ Modern Syntax: N/A&lt;br&gt;💬 User Experience: Poor" tooltip="StarCoder2 7B base model completely failed to understand the file editing task, producing no output at all. This represents the worst performance in Round 4, showing fundamental misunderstanding of the prompt and no tool calling capabilities. The base model version continues to lack the instruction-following capabilities needed for practical Continue usage, especially for complex file modification operations." id="model4-results">
                    <mxCell style="rounded=1;whiteSpace=wrap;html=1;fontSize=12;fillColor=#f8cecc;strokeColor=#b85450;verticalAlign=top;spacingTop=5;" parent="1" vertex="1">
                        <mxGeometry x="1060" y="1210" width="320" height="100" as="geometry"/>
                    </mxCell>
                </object>
                <object label="📊 Round 4 vs Previous Rounds Analysis" tooltip="Comprehensive analysis comparing Round 4 results to previous rounds, showing significant regression in tool execution rates and framework accuracy. This analysis reveals the challenges of file editing operations compared to file creation, and the need for enhanced configuration and prompts for complex modification tasks." id="analysis-title">
                    <mxCell style="rounded=1;whiteSpace=wrap;html=1;fontSize=16;fontStyle=1;fillColor=#e1d5e7;strokeColor=#9673a6;verticalAlign=top;spacingTop=10;" parent="1" vertex="1">
                        <mxGeometry x="40" y="1330" width="1320" height="40" as="geometry"/>
                    </mxCell>
                </object>
                <object label="🔧 Tool Execution Regression&lt;br&gt;&lt;br&gt;🥇 StarCoder2 15B: Only success&lt;br&gt;🥈 DeepSeek Coder: Chat mode regression&lt;br&gt;🥉 Qwen2.5 Coder: Same schema issues&lt;br&gt;❌ StarCoder2 7B: Complete failure&lt;br&gt;&lt;br&gt;Key Insight: Tool success rate dropped to 25%" tooltip="Round 4 shows significant regression in tool execution with only 25% success rate compared to 75% in previous rounds. StarCoder2 15B remains the only successful model for file editing operations. DeepSeek Coder regressed to chat mode instead of tool execution. Qwen2.5 Coder continues to struggle with JSON schema issues. StarCoder2 7B shows complete failure. File editing operations prove significantly more challenging than file creation." id="tool-execution">
                    <mxCell style="rounded=1;whiteSpace=wrap;html=1;fontSize=11;fillColor=#d5e8d4;strokeColor=#82b366;verticalAlign=top;spacingTop=5;" parent="1" vertex="1">
                        <mxGeometry x="40" y="1390" width="320" height="160" as="geometry"/>
                    </mxCell>
                </object>
                <object label="💻 Framework Accuracy Regression&lt;br&gt;&lt;br&gt;🥇 Qwen2.5 Coder: Perfect Lit 3&lt;br&gt;🥈 DeepSeek Coder: N/A (no execution)&lt;br&gt;🥉 StarCoder2 15B: Legacy import regression&lt;br&gt;❌ StarCoder2 7B: No output&lt;br&gt;&lt;br&gt;Key Insight: Lit accuracy dropped to 75%" tooltip="Round 4 shows regression in framework accuracy with only 75% Lit 3 accuracy compared to 100% in previous rounds. Qwen2.5 Coder maintains perfect Lit 3 usage but doesn&#39;t execute. DeepSeek Coder produced no code to evaluate. StarCoder2 15B reverted to legacy lit-element import, showing framework regression. StarCoder2 7B produced no output. File editing operations appear to challenge framework consistency." id="code-quality">
                    <mxCell style="rounded=1;whiteSpace=wrap;html=1;fontSize=11;fillColor=#fff2cc;strokeColor=#d6b656;verticalAlign=top;spacingTop=5;" parent="1" vertex="1">
                        <mxGeometry x="380" y="1390" width="320" height="160" as="geometry"/>
                    </mxCell>
                </object>
                <object label="⚡ Modern Syntax Challenges&lt;br&gt;&lt;br&gt;🥇 Qwen2.5 Coder: Perfect edit logic&lt;br&gt;🥈 StarCoder2 15B: Good but regressed&lt;br&gt;🥉 DeepSeek Coder: N/A (no execution)&lt;br&gt;❌ StarCoder2 7B: No output&lt;br&gt;&lt;br&gt;Key Insight: File editing more complex than creation" tooltip="Round 4 shows that file editing operations are more complex than file creation, challenging modern syntax consistency. Qwen2.5 Coder produces perfect edit logic with correct property addition and render updates. StarCoder2 15B shows good syntax but regressed to legacy imports. DeepSeek Coder produced no code to evaluate. StarCoder2 7B produced no output. File editing requires more sophisticated understanding of existing code structure." id="modern-syntax">
                    <mxCell style="rounded=1;whiteSpace=wrap;html=1;fontSize=11;fillColor=#ffe6cc;strokeColor=#d79b00;verticalAlign=top;spacingTop=5;" parent="1" vertex="1">
                        <mxGeometry x="720" y="1390" width="320" height="160" as="geometry"/>
                    </mxCell>
                </object>
                <object label="💬 User Experience Realism&lt;br&gt;&lt;br&gt;🥇 StarCoder2 15B: Practical execution&lt;br&gt;🥈 DeepSeek Coder: Good explanation&lt;br&gt;🥉 Qwen2.5 Coder: Good communication&lt;br&gt;❌ StarCoder2 7B: No communication&lt;br&gt;&lt;br&gt;Key Insight: Realistic Continue usage patterns" tooltip="Round 4 shows realistic user experience patterns that reflect actual Continue usage scenarios. StarCoder2 15B provides practical execution with successful file editing. DeepSeek Coder offers good explanation but fails to execute, reflecting common user experience. Qwen2.5 Coder demonstrates good communication despite tool execution issues. StarCoder2 7B shows no communication at all. This round reveals the realistic challenges of file editing operations in production use." id="user-experience">
                    <mxCell style="rounded=1;whiteSpace=wrap;html=1;fontSize=11;fillColor=#f8cecc;strokeColor=#b85450;verticalAlign=top;spacingTop=5;" parent="1" vertex="1">
                        <mxGeometry x="1060" y="1390" width="320" height="160" as="geometry"/>
                    </mxCell>
                </object>
                <object label="🏆 Round 4 Summary &amp; Recommendations" tooltip="Comprehensive summary of Round 4 results with actionable recommendations for Continue users. Round 4 reveals significant challenges with file editing operations compared to file creation, showing regression in tool execution rates and framework accuracy. The comparison provides insights into realistic usage patterns and the need for enhanced configuration for complex modification tasks." id="summary-title">
                    <mxCell style="rounded=1;whiteSpace=wrap;html=1;fontSize=16;fontStyle=1;fillColor=#dae8fc;strokeColor=#6c8ebf;verticalAlign=top;spacingTop=10;" parent="1" vertex="1">
                        <mxGeometry x="40" y="1570" width="1320" height="40" as="geometry"/>
                    </mxCell>
                </object>
                <object label="🥇 Best Overall: StarCoder2 15B Instruct&lt;br&gt;&lt;br&gt;✅ Only successful tool execution&lt;br&gt;✅ Good code modification&lt;br&gt;⚠️ Legacy import regression&lt;br&gt;✅ Practical file editing&lt;br&gt;&lt;br&gt;Recommended for: File editing tasks, reliable tool calling, production use" tooltip="StarCoder2 15B Instruct remains the best choice for file editing operations in Round 4, being the only model to successfully execute the edit_existing_file tool. The model correctly added the greeting property and updated the render method, demonstrating practical file editing capabilities. However, it showed framework regression by reverting to legacy lit-element imports. Despite this, it remains the most reliable choice for complex file modification tasks." id="best-overall">
                    <mxCell style="rounded=1;whiteSpace=wrap;html=1;fontSize=12;fillColor=#d5e8d4;strokeColor=#82b366;verticalAlign=top;spacingTop=5;" parent="1" vertex="1">
                        <mxGeometry x="40" y="1630" width="320" height="140" as="geometry"/>
                    </mxCell>
                </object>
                <object label="🥈 Best Code Understanding: Qwen2.5 Coder 7B&lt;br&gt;&lt;br&gt;✅ Perfect edit logic&lt;br&gt;✅ Excellent code modification&lt;br&gt;✅ Perfect Lit 3 usage&lt;br&gt;❌ Tool calling schema issues&lt;br&gt;&lt;br&gt;Recommended for: Code review, edit examples, when tool calling isn&#39;t critical" tooltip="Qwen2.5 Coder 7B demonstrates the best understanding of file editing operations, generating perfect edit logic with correct property addition and render method updates. The model shows excellent code modification capabilities and maintains perfect Lit 3 usage. However, it continues to struggle with tool execution due to incorrect JSON schema usage. Best used for understanding edit patterns, code review, or when manual implementation is acceptable." id="best-code-quality">
                    <mxCell style="rounded=1;whiteSpace=wrap;html=1;fontSize=12;fillColor=#fff2cc;strokeColor=#d6b656;verticalAlign=top;spacingTop=5;" parent="1" vertex="1">
                        <mxGeometry x="380" y="1630" width="320" height="140" as="geometry"/>
                    </mxCell>
                </object>
                <object label="🥉 Conceptual Understanding: DeepSeek Coder 6.7B&lt;br&gt;&lt;br&gt;✅ Good task understanding&lt;br&gt;✅ Clear explanation&lt;br&gt;❌ Chat mode regression&lt;br&gt;⚠️ Tool execution failure&lt;br&gt;&lt;br&gt;Recommended for: Learning, explanation, when execution isn&#39;t critical" tooltip="DeepSeek Coder 6.7B shows good conceptual understanding of file editing tasks and provides clear explanations about using the edit_existing_file tool. However, the model regressed to chat mode instead of executing tools, showing a significant change from previous rounds where it successfully executed file creation tools. This represents a regression in tool calling behavior for file editing operations." id="conceptual-understanding">
                    <mxCell style="rounded=1;whiteSpace=wrap;html=1;fontSize=12;fillColor=#ffe6cc;strokeColor=#d79b00;verticalAlign=top;spacingTop=5;" parent="1" vertex="1">
                        <mxGeometry x="720" y="1630" width="320" height="140" as="geometry"/>
                    </mxCell>
                </object>
                <object label="🔮 Key Insights for File Editing&lt;br&gt;&lt;br&gt;• Tool success rate: 75% → 25% (major regression)&lt;br&gt;• Lit accuracy: 100% → 75% (framework regression)&lt;br&gt;• File editing more complex than creation&lt;br&gt;• StarCoder2 15B only reliable executor&lt;br&gt;• Need enhanced prompts for editing tasks&lt;br&gt;&lt;br&gt;Next: Test with simpler editing operations" tooltip="Key insights from Round 4 reveal significant challenges with file editing operations compared to file creation. Tool success rate dropped from 75% to 25%, showing major regression. Lit framework accuracy dropped from 100% to 75%, indicating framework regression. File editing operations prove significantly more complex than file creation. StarCoder2 15B remains the only reliable executor for file editing tasks. Future rounds should test simpler editing operations and consider enhanced prompts specifically designed for file modification tasks." id="key-insights">
                    <mxCell style="rounded=1;whiteSpace=wrap;html=1;fontSize=12;fillColor=#e1d5e7;strokeColor=#9673a6;verticalAlign=top;spacingTop=5;" parent="1" vertex="1">
                        <mxGeometry x="1060" y="1630" width="320" height="140" as="geometry"/>
                    </mxCell>
                </object>
                <object label="📈 Performance Metrics Summary" tooltip="Quantitative summary of Round 4 model performance across key metrics. This table provides a clear comparison of how each model performed in different categories, showing the significant regression from previous rounds and helping users understand the challenges of file editing operations." id="metrics-title">
                    <mxCell style="rounded=1;whiteSpace=wrap;html=1;fontSize=16;fontStyle=1;fillColor=#dae8fc;strokeColor=#6c8ebf;verticalAlign=top;spacingTop=10;" parent="1" vertex="1">
                        <mxGeometry x="40" y="1790" width="1320" height="40" as="geometry"/>
                    </mxCell>
                </object>
                <object label="Model Performance Matrix (Round 4)&lt;br&gt;&lt;br&gt;&lt;table style=&quot;width:100%; border-collapse:collapse;&quot;&gt;&lt;tr&gt;&lt;th style=&quot;text-align:left; padding:4px;&quot;&gt;Model&lt;/th&gt;&lt;th style=&quot;text-align:center; padding:4px;&quot;&gt;Tool Exec&lt;/th&gt;&lt;th style=&quot;text-align:center; padding:4px;&quot;&gt;Code Quality&lt;/th&gt;&lt;th style=&quot;text-align:center; padding:4px;&quot;&gt;Modern Syntax&lt;/th&gt;&lt;th style=&quot;text-align:center; padding:4px;&quot;&gt;UX&lt;/th&gt;&lt;th style=&quot;text-align:center; padding:4px;&quot;&gt;Overall&lt;/th&gt;&lt;/tr&gt;&lt;tr&gt;&lt;td style=&quot;padding:4px;&quot;&gt;&lt;b&gt;StarCoder2 15B&lt;/b&gt;&lt;/td&gt;&lt;td style=&quot;text-align:center; padding:4px;&quot;&gt;✅ 10/10&lt;/td&gt;&lt;td style=&quot;text-align:center; padding:4px;&quot;&gt;✅ 7/10&lt;/td&gt;&lt;td style=&quot;text-align:center; padding:4px;&quot;&gt;✅ 6/10&lt;/td&gt;&lt;td style=&quot;text-align:center; padding:4px;&quot;&gt;✅ 8/10&lt;/td&gt;&lt;td style=&quot;text-align:center; padding:4px;&quot;&gt;&lt;b&gt;🥇 7.75/10&lt;/b&gt;&lt;/td&gt;&lt;/tr&gt;&lt;tr&gt;&lt;td style=&quot;padding:4px;&quot;&gt;&lt;b&gt;DeepSeek 6.7B&lt;/b&gt;&lt;/td&gt;&lt;td style=&quot;text-align:center; padding:4px;&quot;&gt;❌ 3/10&lt;/td&gt;&lt;td style=&quot;text-align:center; padding:4px;&quot;&gt;❌ 0/10&lt;/td&gt;&lt;td style=&quot;text-align:center; padding:4px;&quot;&gt;❌ 0/10&lt;/td&gt;&lt;td style=&quot;text-align:center; padding:4px;&quot;&gt;✅ 7/10&lt;/td&gt;&lt;td style=&quot;text-align:center; padding:4px;&quot;&gt;&lt;b&gt;🥈 2.5/10&lt;/b&gt;&lt;/td&gt;&lt;/tr&gt;&lt;tr&gt;&lt;td style=&quot;padding:4px;&quot;&gt;&lt;b&gt;Qwen2.5 7B&lt;/b&gt;&lt;/td&gt;&lt;td style=&quot;text-align:center; padding:4px;&quot;&gt;❌ 2/10&lt;/td&gt;&lt;td style=&quot;text-align:center; padding:4px;&quot;&gt;✅ 10/10&lt;/td&gt;&lt;td style=&quot;text-align:center; padding:4px;&quot;&gt;✅ 10/10&lt;/td&gt;&lt;td style=&quot;text-align:center; padding:4px;&quot;&gt;✅ 8/10&lt;/td&gt;&lt;td style=&quot;text-align:center; padding:4px;&quot;&gt;&lt;b&gt;🥉 7.5/10&lt;/b&gt;&lt;/td&gt;&lt;/tr&gt;&lt;tr&gt;&lt;td style=&quot;padding:4px;&quot;&gt;&lt;b&gt;StarCoder2 7B&lt;/b&gt;&lt;/td&gt;&lt;td style=&quot;text-align:center; padding:4px;&quot;&gt;❌ 0/10&lt;/td&gt;&lt;td style=&quot;text-align:center; padding:4px;&quot;&gt;❌ 0/10&lt;/td&gt;&lt;td style=&quot;text-align:center; padding:4px;&quot;&gt;❌ 0/10&lt;/td&gt;&lt;td style=&quot;text-align:center; padding:4px;&quot;&gt;❌ 1/10&lt;/td&gt;&lt;td style=&quot;text-align:center; padding:4px;&quot;&gt;&lt;b&gt;❌ 0.25/10&lt;/b&gt;&lt;/td&gt;&lt;/tr&gt;&lt;/table&gt;" tooltip="Performance matrix showing quantitative scores for each model in Round 4. StarCoder2 15B leads with 7.75/10 overall, being the only model to successfully execute file editing operations, though with framework regression. DeepSeek Coder scores 2.5/10 with significant regression to chat mode. Qwen2.5 Coder scores 7.5/10 with perfect code understanding but poor tool execution. StarCoder2 7B scores 0.25/10 with complete failure. This quantitative analysis shows the significant challenges of file editing operations compared to file creation." id="performance-matrix">
                    <mxCell style="rounded=1;whiteSpace=wrap;html=1;fontSize=11;fillColor=#f5f5f5;strokeColor=#666666;verticalAlign=top;spacingTop=5;" parent="1" vertex="1">
                        <mxGeometry x="40" y="1850" width="1320" height="170" as="geometry"/>
                    </mxCell>
                </object>
            </root>
        </mxGraphModel>
    </diagram>
</mxfile>